<?xml version="1.0" encoding="UTF-8"?>
<!DOCTYPE svg PUBLIC "-//W3C//DTD SVG 1.1//EN" "http://www.w3.org/Graphics/SVG/1.1/DTD/svg11.dtd">
<!-- Creator: CorelDRAW 2021 (64-Bit) -->
<svg xmlns="http://www.w3.org/2000/svg" xml:space="preserve" width="0.245256in" height="0.245256in" version="1.1" shape-rendering="geometricPrecision" text-rendering="geometricPrecision" image-rendering="optimizeQuality" fill-rule="evenodd" clip-rule="evenodd"
viewBox="0 0 202.88 202.88"
 xmlns:xlink="http://www.w3.org/1999/xlink"
 xmlns:xodm="http://www.corel.com/coreldraw/odm/2003">
 <g id="Layer_x0020_1">
  <metadata id="CorelCorpID_0Corel-Layer"/>
  <path fill="black" fill-rule="nonzero" d="M73.82 0c40.75,0 73.82,33.08 73.82,73.82 0,17.4 -6.03,33.41 -16.1,46.03l68.92 68.91c3.23,3.23 3.23,8.47 0,11.7 -3.23,3.23 -8.47,3.23 -11.7,0l-68.92 -68.92c-12.62,10.08 -28.62,16.1 -46.02,16.1 -40.73,0 -73.82,-33.09 -73.82,-73.82 0,-40.75 33.08,-73.82 73.82,-73.82zm57.28 73.82c0,-31.64 -25.62,-57.27 -57.28,-57.27 -31.64,0 -57.27,25.62 -57.27,57.27 0,31.64 25.63,57.28 57.27,57.28 31.63,0 57.28,-25.64 57.28,-57.28z"/>
 </g>
</svg>
